<?xml version="1.0" standalone="no"?>
<!DOCTYPE svg PUBLIC "-//W3C//DTD SVG 20010904//EN"
 "http://www.w3.org/TR/2001/REC-SVG-20010904/DTD/svg10.dtd">
<svg version="1.0" xmlns="http://www.w3.org/2000/svg"
 width="576.000000pt" height="460.000000pt" viewBox="0 0 576.000000 460.000000"
 preserveAspectRatio="xMidYMid meet">
<metadata>
Created by potrace 1.15, written by Peter Selinger 2001-2017
</metadata>
<g transform="translate(0.000000,460.000000) scale(0.100000,-0.100000)"
fill="#000000" stroke="none">
<path d="M3400 4505 c0 -13 -54 -15 -428 -15 -320 0 -431 3 -440 12 -9 9 -15
9 -24 0 -7 -7 -44 -12 -95 -12 l-83 0 0 -68 0 -68 -72 -23 c-40 -13 -101 -36
-135 -52 l-63 -28 0 120 0 119 -140 0 -140 0 0 -114 c0 -71 -4 -117 -11 -121
-6 -4 -8 -13 -5 -21 4 -12 -17 -14 -119 -14 l-125 0 0 135 0 135 -145 0 -145
0 0 -135 0 -135 -130 0 -130 0 0 135 0 135 -140 0 -140 0 0 -135 0 -135 -135
0 -135 0 0 135 0 135 -140 0 -140 0 0 -140 0 -140 135 0 135 0 0 -135 0 -135
-135 0 -135 0 0 -140 0 -140 135 0 135 0 0 -130 0 -130 -135 0 -135 0 0 -145
0 -145 135 0 135 0 0 -130 0 -130 -135 0 -135 0 0 -140 0 -140 135 0 135 0 0
-135 0 -135 -135 0 -135 0 0 -140 0 -140 135 0 135 0 0 -135 0 -135 -135 0
-135 0 0 -140 0 -140 135 0 135 0 0 -130 0 -130 -135 0 -135 0 0 -145 0 -145
135 0 135 0 0 -130 0 -130 -135 0 -135 0 0 -140 0 -140 135 0 135 0 0 -140 0
-140 145 0 145 0 2 123 c1 67 2 130 1 140 0 15 11 17 93 17 67 0 103 -5 129
-17 l35 -17 0 -123 0 -123 140 0 140 0 0 65 c0 39 4 65 11 65 6 0 54 -11 107
-24 53 -13 109 -27 125 -30 21 -5 27 -12 27 -32 0 -25 -2 -26 -47 -22 -36 2
-48 -1 -51 -12 -2 -13 51 -15 443 -12 303 2 445 -1 445 -8 0 -5 14 -10 30 -10
17 0 30 5 30 10 0 8 142 11 448 10 246 -1 486 -1 535 0 l87 0 0 70 0 69 40 11
c22 6 83 28 135 50 l95 38 0 -119 0 -119 140 0 140 0 0 119 c0 73 4 122 10
126 8 5 7 11 -1 21 -10 12 8 14 120 14 l131 0 0 -140 0 -140 145 0 145 0 0
140 0 140 130 0 130 0 0 -140 0 -140 140 0 140 0 0 140 0 140 135 0 135 0 0
-140 0 -140 140 0 140 0 0 145 0 145 -135 0 -135 0 0 130 0 130 135 0 135 0 0
140 0 140 -135 0 -135 0 0 135 0 135 135 0 135 0 0 140 0 140 -135 0 -135 0 0
130 0 130 135 0 135 0 0 145 0 145 -135 0 -135 0 0 130 0 130 135 0 135 0 0
140 0 140 -135 0 -135 0 0 135 0 135 135 0 135 0 0 140 0 140 -135 0 -135 0 0
135 0 135 135 0 135 0 0 140 0 140 -135 0 -135 0 0 130 0 130 135 0 135 0 0
145 0 145 -135 0 -135 0 0 135 0 135 -145 0 -145 0 0 -112 c0 -167 6 -158
-107 -158 -65 0 -103 5 -123 15 l-30 16 0 119 0 120 -140 0 -140 0 0 -65 c0
-36 -3 -65 -7 -65 -4 0 -39 9 -77 19 -39 11 -97 25 -128 31 -55 11 -58 13 -58
41 0 26 3 29 34 29 19 0 38 -5 41 -10 5 -8 11 -7 21 1 11 9 12 15 3 26 -9 10
-15 11 -23 3 -6 -6 -154 -10 -438 -10 -374 0 -428 2 -428 15 0 10 -10 15 -30
15 -20 0 -30 -5 -30 -15z m0 -35 c0 -5 11 -10 25 -10 14 0 25 5 25 10 0 20
315 6 565 -26 440 -56 803 -181 959 -331 62 -59 109 -153 76 -153 -5 0 -10
-11 -10 -25 0 -14 5 -25 11 -25 18 0 1 -48 -33 -97 -131 -192 -625 -356 -1212
-403 -166 -13 -356 -13 -356 0 0 6 -11 10 -25 10 -14 0 -25 -4 -25 -10 0 -13
-198 -13 -355 0 -573 48 -1017 189 -1186 378 -42 47 -78 122 -58 122 12 0 11
44 -1 56 -16 16 37 109 89 156 197 175 644 306 1191 347 158 12 320 13 320 1z
m-2440 -395 l0 -135 -130 0 -130 0 0 135 0 135 130 0 130 0 0 -135z m550 0 l0
-135 -135 0 -135 0 0 135 0 135 135 0 135 0 0 -135z m3830 0 l0 -135 -120 0
c-100 0 -120 3 -120 15 0 8 -4 15 -10 15 -6 0 -10 47 -10 120 l0 120 130 0
130 0 0 -135z m-4650 -275 l0 -130 -135 0 -135 0 0 130 0 130 135 0 135 0 0
-130z m540 0 l0 -130 -130 0 -130 0 0 130 0 130 130 0 130 0 0 -130z m520 120
c0 -5 7 -10 15 -10 13 0 15 -20 15 -120 l0 -120 -130 0 -130 0 0 130 0 130
115 0 c70 0 115 -4 115 -10z m-790 -390 l0 -130 -130 0 -130 0 0 130 0 130
130 0 130 0 0 -130z m550 0 l0 -130 -135 0 -135 0 0 130 0 130 135 0 135 0 0
-130z m510 115 l30 -16 0 -114 0 -115 -130 0 -130 0 0 109 c0 66 4 112 10 116
8 5 7 11 -1 21 -17 21 180 20 221 -1z m3320 -115 l0 -130 -135 0 -135 0 0
-125 c0 -102 -3 -127 -15 -131 -17 -7 -21 -54 -4 -54 17 0 1 -48 -32 -97 -90
-131 -365 -261 -692 -327 -100 -21 -121 -15 -137 35 -8 22 -25 52 -39 68 -14
15 -46 52 -70 81 -24 28 -78 79 -120 112 -94 75 -92 72 -58 57 15 -7 27 -16
27 -21 0 -4 7 -8 15 -8 25 0 17 30 -7 31 -13 0 -66 22 -118 48 l-95 49 85 6
c47 4 150 11 230 15 80 4 120 9 90 10 -49 2 -40 5 80 26 258 45 480 108 637
180 39 18 74 31 77 28 2 -3 31 13 63 35 44 30 66 39 86 35 25 -5 27 -3 27 26
0 21 -5 31 -15 31 -12 0 -15 13 -15 55 0 34 4 55 11 55 6 0 9 9 6 20 -5 19 0
20 124 20 l129 0 0 -130z m-550 -20 l0 -110 -130 0 -131 0 3 61 3 61 90 32
c50 18 104 40 120 49 17 9 33 16 38 17 4 0 7 -49 7 -110z m-2207 -50 c12 0 17
-8 17 -29 l0 -28 -130 -2 -130 -1 0 58 0 59 113 -29 c61 -15 120 -28 130 -28z
m-1893 -205 l0 -135 -135 0 -135 0 0 135 0 135 135 0 135 0 0 -135z m540 0 l0
-135 -130 0 -130 0 0 135 0 135 130 0 130 0 0 -135z m550 5 l0 -130 -130 0
-130 0 0 130 0 130 130 0 130 0 0 -130z m550 10 c0 -100 -2 -120 -15 -120 -8
0 -15 -4 -15 -10 0 -6 -47 -10 -120 -10 l-120 0 0 130 0 130 135 0 135 0 0
-120z m2190 52 l0 -69 -122 -27 c-68 -14 -129 -26 -135 -26 -10 0 -13 25 -13
91 l0 92 50 -6 c29 -4 50 -2 50 3 0 6 38 10 85 10 l85 0 0 -68z m-1640 -67 l0
-125 -135 0 -135 0 0 125 0 125 135 0 135 0 0 -125z m526 111 c10 -11 14 -43
14 -130 l0 -116 -79 0 c-44 0 -82 4 -85 9 -3 5 -26 6 -51 3 l-45 -5 0 127 0
126 116 0 c87 0 119 -4 130 -14z m564 -95 c0 -82 -3 -110 -13 -114 -8 -3 -59
-8 -115 -12 -133 -10 -132 -10 -132 129 l0 106 130 0 130 0 0 -109z m-3010
-291 l0 -130 -130 0 -130 0 0 130 0 130 130 0 130 0 0 -130z m550 90 c0 -37 0
-37 -56 -49 -31 -7 -88 -24 -127 -37 -39 -13 -74 -24 -79 -24 -4 0 -8 34 -8
75 l0 75 135 -1 135 -2 0 -37z m800 30 c0 -5 11 -10 25 -10 14 0 25 5 25 12 0
8 41 9 158 5 451 -18 884 -125 1156 -285 113 -67 218 -168 255 -245 34 -71 46
-117 31 -117 -5 0 -10 -11 -10 -25 0 -14 5 -25 11 -25 15 0 2 -54 -30 -119
-119 -245 -600 -453 -1194 -516 -167 -17 -377 -20 -377 -5 0 6 -11 10 -25 10
-14 0 -25 -4 -25 -10 0 -15 -221 -12 -383 6 -654 71 -1146 305 -1219 578 -10
39 -10 50 0 53 14 5 17 53 2 53 -32 0 17 124 77 198 84 103 305 233 511 301
189 63 410 109 617 130 61 6 124 13 140 15 73 8 255 5 255 -4z m1350 0 c0 -5
9 -10 20 -10 19 0 20 -7 20 -121 l0 -121 -27 5 c-16 3 -76 27 -135 53 l-108
49 0 78 0 77 115 0 c70 0 115 -4 115 -10z m1680 -120 l0 -130 -135 0 c-124 0
-135 1 -135 18 0 10 3 22 7 26 4 4 6 47 4 96 -2 63 1 93 11 104 10 12 39 15
131 16 l117 0 0 -130z m-4656 -152 c-4 -6 -6 -67 -5 -135 l2 -123 -130 0 -131
0 0 135 0 135 136 0 c100 0 133 -3 128 -12z m3276 -3 c-10 -12 -10 -19 -2 -27
14 -14 17 -228 4 -228 -4 0 -16 15 -27 33 -27 47 -132 153 -182 185 -71 45
-60 52 88 52 117 0 130 -2 119 -15z m1100 -60 c0 -43 -4 -75 -10 -75 -5 0 -10
-9 -10 -20 0 -31 -132 -100 -192 -100 l-48 0 0 118 c0 117 0 117 28 134 20 12
53 16 130 17 l102 1 0 -75z m-540 -140 l0 -55 -136 0 -135 0 3 33 3 32 115 21
c163 30 150 33 150 -31z m550 -26 l0 -29 135 0 135 0 0 -135 0 -135 -120 0
c-100 0 -120 3 -120 15 0 16 -17 19 -44 9 -18 -7 -22 -50 -5 -56 19 -6 -7 -69
-46 -116 -48 -56 -114 -102 -223 -157 -155 -77 -459 -167 -512 -150 -19 6 -20
15 -20 246 0 215 2 242 18 258 17 18 213 62 292 65 22 1 35 7 35 16 0 8 28 22
70 35 39 12 98 34 133 48 34 14 60 22 57 17 -3 -5 -1 -11 5 -15 6 -3 29 9 53
28 60 50 138 97 148 91 5 -3 9 -18 9 -35z m-830 -114 c0 -50 -4 -85 -10 -85
-5 0 -10 -13 -10 -30 0 -16 5 -30 10 -30 6 0 10 -9 10 -20 0 -19 -7 -20 -130
-20 l-130 0 0 50 c0 38 4 50 15 50 10 0 15 10 15 30 0 20 -5 30 -15 30 -12 0
-15 13 -15 55 l0 55 130 0 130 0 0 -85z m550 61 c0 -25 -33 -39 -237 -101 -22
-6 -23 -4 -23 59 l0 66 130 0 130 0 0 -24z m-4111 -381 c-3 -77 0 -127 6 -129
6 -3 -52 -5 -127 -5 l-138 -1 0 130 0 130 131 0 131 0 -3 -125z m3291 16 c0
-66 -4 -112 -10 -116 -8 -5 -7 -11 1 -21 10 -12 -8 -14 -121 -14 -83 0 -130 4
-128 10 2 5 35 34 73 63 39 29 93 83 120 120 28 37 53 67 58 67 4 0 7 -49 7
-109z m-3010 -291 l0 -130 -52 26 c-28 14 -82 46 -120 71 -52 35 -68 51 -68
69 0 13 -4 24 -10 24 -5 0 -10 16 -10 35 l0 35 130 0 130 0 0 -130z m2740 -5
l0 -135 -135 0 -135 0 0 85 c0 61 3 85 13 85 6 0 57 22 112 49 55 27 110 50
123 50 22 1 22 0 22 -134z m540 50 c0 -50 -4 -85 -10 -85 -5 0 -10 -13 -10
-30 0 -16 5 -30 10 -30 6 0 10 -9 10 -20 0 -19 -7 -20 -130 -20 l-130 0 0 70
c0 56 3 70 15 70 10 0 15 10 15 30 0 20 -5 30 -15 30 -10 0 -15 11 -15 35 l0
35 130 0 130 0 0 -85z m1100 -50 l0 -135 -135 0 -135 0 0 135 0 135 135 0 135
0 0 -135z m-550 -20 l0 -115 -130 0 -130 0 0 59 0 58 83 17 c45 9 94 16 109
16 30 0 46 16 30 32 -8 8 -15 8 -24 1 -7 -6 -33 -14 -58 -17 -42 -6 -39 -4 35
28 44 19 81 35 83 35 1 1 2 -51 2 -114z m-3402 -1 c62 -19 115 -34 118 -34 2
0 4 -16 4 -36 l0 -37 -50 6 c-29 4 -50 2 -50 -3 0 -6 -38 -10 -85 -10 l-85 0
0 81 c0 73 2 80 18 74 9 -3 68 -22 130 -41z m-617 -19 c31 -24 60 -41 64 -37
3 4 5 2 3 -4 -1 -6 40 -46 92 -89 52 -42 97 -84 98 -92 4 -16 24 -13 30 5 2 7
-2 12 -10 12 -13 0 -198 146 -198 157 0 2 21 -7 48 -22 230 -129 602 -234 987
-279 l120 -14 -162 0 c-90 0 -164 -2 -165 -6 -2 -4 140 -7 315 -6 213 0 317
-3 317 -10 0 -5 11 -10 25 -10 14 0 25 5 25 11 0 7 99 9 315 7 205 -2 315 0
315 7 0 6 -62 10 -167 9 -93 -1 -150 0 -128 2 396 40 741 128 1005 256 69 34
130 62 136 63 7 2 35 21 64 44 28 23 56 41 61 41 5 0 9 -84 9 -195 0 -123 -4
-195 -10 -195 -5 0 -10 -11 -10 -25 0 -14 4 -25 9 -25 15 0 -6 -59 -35 -102
-59 -85 -233 -187 -430 -253 -174 -58 -373 -100 -654 -137 -132 -18 -868 -18
-1010 0 -519 64 -878 183 -1046 347 -61 60 -101 134 -75 143 17 6 13 49 -5 56
-27 10 -44 7 -44 -9 0 -12 -20 -15 -120 -15 l-120 0 0 130 0 130 135 0 135 0
0 75 c0 51 4 75 12 75 6 0 37 -20 69 -45z m1009 -214 c0 -107 0 -108 -22 -105
-61 9 -205 36 -220 40 -15 5 -18 18 -18 90 l0 84 130 0 130 0 0 -109z m520 99
c0 -5 7 -10 15 -10 12 0 15 -18 15 -105 0 -87 -3 -105 -15 -105 -8 0 -15 -4
-15 -10 0 -6 -47 -10 -120 -10 l-120 0 0 125 0 125 120 0 c73 0 120 -4 120
-10z m580 -99 l0 -108 -47 -7 c-27 -3 -87 -9 -135 -13 l-88 -6 0 122 0 121
135 0 135 0 0 -109z m540 60 c0 -38 -4 -50 -17 -54 -10 -3 -69 -19 -130 -35
l-113 -30 0 82 0 83 130 2 130 1 0 -49z m1100 -81 l0 -130 -135 0 -135 0 0
130 0 130 135 0 135 0 0 -130z m540 0 l0 -130 -130 0 -130 0 0 130 0 130 130
0 130 0 0 -130z m-820 -270 l0 -130 -130 0 -130 0 0 120 c0 100 3 120 15 120
8 0 15 5 15 10 0 6 45 10 115 10 l115 0 0 -130z m550 0 l0 -130 -130 0 -130 0
0 130 0 130 130 0 130 0 0 -130z m550 0 l0 -130 -135 0 -135 0 0 130 0 130
135 0 135 0 0 -130z m-4667 -159 c-3 -10 0 -22 6 -25 6 -4 11 -29 11 -57 0
-37 -4 -49 -15 -49 -10 0 -15 -10 -15 -30 0 -27 3 -30 33 -30 23 0 51 -13 90
-40 31 -22 60 -39 64 -38 4 1 55 -16 113 -39 256 -101 557 -168 905 -202 l90
-9 -137 1 c-76 0 -138 -3 -138 -7 0 -4 142 -7 315 -6 212 0 315 -3 315 -10 0
-5 11 -10 25 -10 14 0 25 5 25 11 0 7 99 9 315 7 205 -2 315 0 315 7 0 6 -51
9 -137 8 l-138 -2 125 14 c379 43 745 131 933 227 22 11 40 18 42 16 6 -6
-174 -128 -190 -128 -8 0 -15 -7 -15 -15 0 -21 19 -19 38 4 26 30 289 211 307
211 13 0 15 -22 15 -155 0 -97 -4 -155 -10 -155 -14 0 -13 -47 1 -52 15 -5
-11 -66 -47 -114 -65 -85 -271 -196 -479 -259 -145 -44 -363 -88 -540 -109
-185 -23 -529 -39 -533 -26 -5 13 -45 13 -58 0 -13 -13 -357 3 -533 25 -479
60 -860 194 -1005 356 -48 53 -78 120 -57 127 17 6 14 52 -4 52 -13 0 -15 21
-15 125 l0 125 -135 0 -135 0 0 135 0 135 129 0 c122 0 129 -1 124 -19z m3288
5 c-8 -10 -9 -16 -1 -21 5 -3 10 -31 10 -61 0 -41 -4 -54 -15 -54 -8 0 -15 -9
-15 -19 0 -37 -117 -101 -185 -101 l-45 0 0 118 c0 117 0 117 28 134 37 23
242 27 223 4z m559 -121 l0 -135 -135 0 -135 0 0 135 0 135 135 0 135 0 0
-135z m540 0 l0 -135 -130 0 -130 0 0 135 0 135 130 0 130 0 0 -135z m-3882
11 l52 -18 0 -64 0 -64 -130 0 -130 0 0 114 0 114 78 -32 c42 -18 101 -41 130
-50z m2242 -86 l0 -60 -79 0 c-44 0 -82 4 -85 9 -3 5 -26 6 -52 3 -45 -5 -46
-5 -42 23 3 27 7 29 107 52 57 13 107 25 109 28 3 3 14 5 24 5 15 0 18 -8 18
-60z m-1910 -165 l0 -93 -107 23 c-181 39 -163 27 -163 101 l0 64 135 -1 135
-2 0 -92z m540 -31 l0 -126 -37 6 c-21 3 -80 8 -130 12 l-93 6 0 114 0 114
130 0 130 0 0 -126z m550 1 l0 -125 -116 0 c-87 0 -119 4 -130 14 -19 19 -20
200 -1 221 9 11 41 14 130 15 l117 0 0 -125z m550 31 l0 -94 -37 -6 c-21 -4
-82 -12 -135 -20 l-98 -13 0 114 0 113 135 0 135 0 0 -94z m550 75 c0 -16 -23
-27 -123 -60 -67 -23 -128 -41 -135 -41 -8 0 -12 19 -12 60 l0 60 135 0 c126
0 135 -1 135 -19z m540 -111 l0 -130 -115 0 c-96 0 -115 3 -115 15 0 8 -7 15
-15 15 -12 0 -15 19 -15 115 l0 115 130 0 130 0 0 -130z m550 0 l0 -130 -130
0 -130 0 0 130 0 130 130 0 130 0 0 -130z m550 0 l0 -130 -135 0 -135 0 0 130
0 130 135 0 135 0 0 -130z m-4680 -155 c0 -8 5 -15 10 -15 6 0 10 -45 10 -115
l0 -115 -130 0 -130 0 0 130 0 130 120 0 c100 0 120 -2 120 -15z m3860 -115
l0 -130 -135 0 -135 0 0 130 0 130 135 0 135 0 0 -130z m540 0 l0 -130 -130 0
-130 0 0 130 0 130 130 0 130 0 0 -130z"/>
</g>
</svg>
