<svg xmlns="http://www.w3.org/2000/svg" version="1.0" width="576" height="460" preserveAspectRatio="xMidYMid meet" style=""><rect id="backgroundrect" width="100%" height="100%" x="0" y="0" fill="none" stroke="none"/>
<metadata>
Created by potrace 1.15, written by Peter Selinger 2001-2017
</metadata>

<g class="currentLayer" style=""><title>Layer 1</title><g transform="translate(0,460) scale(0.10000000149011612,-0.10000000149011612) " fill="#009900" stroke="#d5d50b" id="svg_1" class="" fill-opacity="1" opacity="1" filter="url(#f001)" stroke-opacity="1">
<path d="M3437.313428878784,4497.537312984467 c0,-13 -54,-15 -428,-15 c-320,0 -431,3 -440,12 c-9,9 -15,9 -24,0 c-7,-7 -44,-12 -95,-12 l-83,0 l0,-68 l0,-68 l-72,-23 c-40,-13 -101,-36 -135,-52 l-63,-28 l0,120 l0,119 l-140,0 l-140,0 l0,-114 c0,-71 -4,-117 -11,-121 c-6,-4 -8,-13 -5,-21 c4,-12 -17,-14 -119,-14 l-125,0 l0,135 l0,135 l-145,0 l-145,0 l0,-135 l0,-135 l-130,0 l-130,0 l0,135 l0,135 l-140,0 l-140,0 l0,-135 l0,-135 l-135,0 l-135,0 l0,135 l0,135 l-140,0 l-140,0 l0,-140 l0,-140 l135,0 l135,0 l0,-135 l0,-135 l-135,0 l-135,0 l0,-140 l0,-140 l135,0 l135,0 l0,-130 l0,-130 l-135,0 l-135,0 l0,-145 l0,-145 l135,0 l135,0 l0,-130 l0,-130 l-135,0 l-135,0 l0,-140 l0,-140 l135,0 l135,0 l0,-135 l0,-135 l-135,0 l-135,0 l0,-140 l0,-140 l135,0 l135,0 l0,-135 l0,-135 l-135,0 l-135,0 l0,-140 l0,-140 l135,0 l135,0 l0,-130 l0,-130 l-135,0 l-135,0 l0,-145 l0,-145 l135,0 l135,0 l0,-130 l0,-130 l-135,0 l-135,0 l0,-140 l0,-140 l135,0 l135,0 l0,-140 l0,-140 l145,0 l145,0 l2,123 c1,67 2,130 1,140 c0,15 11,17 93,17 c67,0 103,-5 129,-17 l35,-17 l0,-123 l0,-123 l140,0 l140,0 l0,65 c0,39 4,65 11,65 c6,0 54,-11 107,-24 c53,-13 109,-27 125,-30 c21,-5 27,-12 27,-32 c0,-25 -2,-26 -47,-22 c-36,2 -48,-1 -51,-12 c-2,-13 51,-15 443,-12 c303,2 445,-1 445,-8 c0,-5 14,-10 30,-10 c17,0 30,5 30,10 c0,8 142,11 448,10 c246,-1 486,-1 535,0 l87,0 l0,70 l0,69 l40,11 c22,6 83,28 135,50 l95,38 l0,-119 l0,-119 l140,0 l140,0 l0,119 c0,73 4,122 10,126 c8,5 7,11 -1,21 c-10,12 8,14 120,14 l131,0 l0,-140 l0,-140 l145,0 l145,0 l0,140 l0,140 l130,0 l130,0 l0,-140 l0,-140 l140,0 l140,0 l0,140 l0,140 l135,0 l135,0 l0,-140 l0,-140 l140,0 l140,0 l0,145 l0,145 l-135,0 l-135,0 l0,130 l0,130 l135,0 l135,0 l0,140 l0,140 l-135,0 l-135,0 l0,135 l0,135 l135,0 l135,0 l0,140 l0,140 l-135,0 l-135,0 l0,130 l0,130 l135,0 l135,0 l0,145 l0,145 l-135,0 l-135,0 l0,130 l0,130 l135,0 l135,0 l0,140 l0,140 l-135,0 l-135,0 l0,135 l0,135 l135,0 l135,0 l0,140 l0,140 l-135,0 l-135,0 l0,135 l0,135 l135,0 l135,0 l0,140 l0,140 l-135,0 l-135,0 l0,130 l0,130 l135,0 l135,0 l0,145 l0,145 l-135,0 l-135,0 l0,135 l0,135 l-145,0 l-145,0 l0,-112 c0,-167 6,-158 -107,-158 c-65,0 -103,5 -123,15 l-30,16 l0,119 l0,120 l-140,0 l-140,0 l0,-65 c0,-36 -3,-65 -7,-65 c-4,0 -39,9 -77,19 c-39,11 -97,25 -128,31 c-55,11 -58,13 -58,41 c0,26 3,29 34,29 c19,0 38,-5 41,-10 c5,-8 11,-7 21,1 c11,9 12,15 3,26 c-9,10 -15,11 -23,3 c-6,-6 -154,-10 -438,-10 c-374,0 -428,2 -428,15 c0,10 -10,15 -30,15 c-20,0 -30,-5 -30,-15 zm0,-35 c0,-5 11,-10 25,-10 c14,0 25,5 25,10 c0,20 315,6 565,-26 c440,-56 803,-181 959,-331 c62,-59 109,-153 76,-153 c-5,0 -10,-11 -10,-25 c0,-14 5,-25 11,-25 c18,0 1,-48 -33,-97 c-131,-192 -625,-356 -1212,-403 c-166,-13 -356,-13 -356,0 c0,6 -11,10 -25,10 c-14,0 -25,-4 -25,-10 c0,-13 -198,-13 -355,0 c-573,48 -1017,189 -1186,378 c-42,47 -78,122 -58,122 c12,0 11,44 -1,56 c-16,16 37,109 89,156 c197,175 644,306 1191,347 c158,12 320,13 320,1 zm-2440,-395 l0,-135 l-130,0 l-130,0 l0,135 l0,135 l130,0 l130,0 l0,-135 zm550,0 l0,-135 l-135,0 l-135,0 l0,135 l0,135 l135,0 l135,0 l0,-135 zm3830,0 l0,-135 l-120,0 c-100,0 -120,3 -120,15 c0,8 -4,15 -10,15 c-6,0 -10,47 -10,120 l0,120 l130,0 l130,0 l0,-135 zm-4650,-275 l0,-130 l-135,0 l-135,0 l0,130 l0,130 l135,0 l135,0 l0,-130 zm540,0 l0,-130 l-130,0 l-130,0 l0,130 l0,130 l130,0 l130,0 l0,-130 zm520,120 c0,-5 7,-10 15,-10 c13,0 15,-20 15,-120 l0,-120 l-130,0 l-130,0 l0,130 l0,130 l115,0 c70,0 115,-4 115,-10 zm-790,-390 l0,-130 l-130,0 l-130,0 l0,130 l0,130 l130,0 l130,0 l0,-130 zm550,0 l0,-130 l-135,0 l-135,0 l0,130 l0,130 l135,0 l135,0 l0,-130 zm510,115 l30,-16 l0,-114 l0,-115 l-130,0 l-130,0 l0,109 c0,66 4,112 10,116 c8,5 7,11 -1,21 c-17,21 180,20 221,-1 zm3320,-115 l0,-130 l-135,0 l-135,0 l0,-125 c0,-102 -3,-127 -15,-131 c-17,-7 -21,-54 -4,-54 c17,0 1,-48 -32,-97 c-90,-131 -365,-261 -692,-327 c-100,-21 -121,-15 -137,35 c-8,22 -25,52 -39,68 c-14,15 -46,52 -70,81 c-24,28 -78,79 -120,112 c-94,75 -92,72 -58,57 c15,-7 27,-16 27,-21 c0,-4 7,-8 15,-8 c25,0 17,30 -7,31 c-13,0 -66,22 -118,48 l-95,49 l85,6 c47,4 150,11 230,15 c80,4 120,9 90,10 c-49,2 -40,5 80,26 c258,45 480,108 637,180 c39,18 74,31 77,28 c2,-3 31,13 63,35 c44,30 66,39 86,35 c25,-5 27,-3 27,26 c0,21 -5,31 -15,31 c-12,0 -15,13 -15,55 c0,34 4,55 11,55 c6,0 9,9 6,20 c-5,19 0,20 124,20 l129,0 l0,-130 zm-550,-20 l0,-110 l-130,0 l-131,0 l3,61 l3,61 l90,32 c50,18 104,40 120,49 c17,9 33,16 38,17 c4,0 7,-49 7,-110 zm-2207,-50 c12,0 17,-8 17,-29 l0,-28 l-130,-2 l-130,-1 l0,58 l0,59 l113,-29 c61,-15 120,-28 130,-28 zm-1893,-205 l0,-135 l-135,0 l-135,0 l0,135 l0,135 l135,0 l135,0 l0,-135 zm540,0 l0,-135 l-130,0 l-130,0 l0,135 l0,135 l130,0 l130,0 l0,-135 zm550,5 l0,-130 l-130,0 l-130,0 l0,130 l0,130 l130,0 l130,0 l0,-130 zm550,10 c0,-100 -2,-120 -15,-120 c-8,0 -15,-4 -15,-10 c0,-6 -47,-10 -120,-10 l-120,0 l0,130 l0,130 l135,0 l135,0 l0,-120 zm2190,52 l0,-69 l-122,-27 c-68,-14 -129,-26 -135,-26 c-10,0 -13,25 -13,91 l0,92 l50,-6 c29,-4 50,-2 50,3 c0,6 38,10 85,10 l85,0 l0,-68 zm-1640,-67 l0,-125 l-135,0 l-135,0 l0,125 l0,125 l135,0 l135,0 l0,-125 zm526,111 c10,-11 14,-43 14,-130 l0,-116 l-79,0 c-44,0 -82,4 -85,9 c-3,5 -26,6 -51,3 l-45,-5 l0,127 l0,126 l116,0 c87,0 119,-4 130,-14 zm564,-95 c0,-82 -3,-110 -13,-114 c-8,-3 -59,-8 -115,-12 c-133,-10 -132,-10 -132,129 l0,106 l130,0 l130,0 l0,-109 zm-3010,-291 l0,-130 l-130,0 l-130,0 l0,130 l0,130 l130,0 l130,0 l0,-130 zm550,90 c0,-37 0,-37 -56,-49 c-31,-7 -88,-24 -127,-37 c-39,-13 -74,-24 -79,-24 c-4,0 -8,34 -8,75 l0,75 l135,-1 l135,-2 l0,-37 zm800,30 c0,-5 11,-10 25,-10 c14,0 25,5 25,12 c0,8 41,9 158,5 c451,-18 884,-125 1156,-285 c113,-67 218,-168 255,-245 c34,-71 46,-117 31,-117 c-5,0 -10,-11 -10,-25 c0,-14 5,-25 11,-25 c15,0 2,-54 -30,-119 c-119,-245 -600,-453 -1194,-516 c-167,-17 -377,-20 -377,-5 c0,6 -11,10 -25,10 c-14,0 -25,-4 -25,-10 c0,-15 -221,-12 -383,6 c-654,71 -1146,305 -1219,578 c-10,39 -10,50 0,53 c14,5 17,53 2,53 c-32,0 17,124 77,198 c84,103 305,233 511,301 c189,63 410,109 617,130 c61,6 124,13 140,15 c73,8 255,5 255,-4 zm1350,0 c0,-5 9,-10 20,-10 c19,0 20,-7 20,-121 l0,-121 l-27,5 c-16,3 -76,27 -135,53 l-108,49 l0,78 l0,77 l115,0 c70,0 115,-4 115,-10 zm1680,-120 l0,-130 l-135,0 c-124,0 -135,1 -135,18 c0,10 3,22 7,26 c4,4 6,47 4,96 c-2,63 1,93 11,104 c10,12 39,15 131,16 l117,0 l0,-130 zm-4656,-152 c-4,-6 -6,-67 -5,-135 l2,-123 l-130,0 l-131,0 l0,135 l0,135 l136,0 c100,0 133,-3 128,-12 zm3276,-3 c-10,-12 -10,-19 -2,-27 c14,-14 17,-228 4,-228 c-4,0 -16,15 -27,33 c-27,47 -132,153 -182,185 c-71,45 -60,52 88,52 c117,0 130,-2 119,-15 zm1100,-60 c0,-43 -4,-75 -10,-75 c-5,0 -10,-9 -10,-20 c0,-31 -132,-100 -192,-100 l-48,0 l0,118 c0,117 0,117 28,134 c20,12 53,16 130,17 l102,1 l0,-75 zm-540,-140 l0,-55 l-136,0 l-135,0 l3,33 l3,32 l115,21 c163,30 150,33 150,-31 zm550,-26 l0,-29 l135,0 l135,0 l0,-135 l0,-135 l-120,0 c-100,0 -120,3 -120,15 c0,16 -17,19 -44,9 c-18,-7 -22,-50 -5,-56 c19,-6 -7,-69 -46,-116 c-48,-56 -114,-102 -223,-157 c-155,-77 -459,-167 -512,-150 c-19,6 -20,15 -20,246 c0,215 2,242 18,258 c17,18 213,62 292,65 c22,1 35,7 35,16 c0,8 28,22 70,35 c39,12 98,34 133,48 c34,14 60,22 57,17 c-3,-5 -1,-11 5,-15 c6,-3 29,9 53,28 c60,50 138,97 148,91 c5,-3 9,-18 9,-35 zm-830,-114 c0,-50 -4,-85 -10,-85 c-5,0 -10,-13 -10,-30 c0,-16 5,-30 10,-30 c6,0 10,-9 10,-20 c0,-19 -7,-20 -130,-20 l-130,0 l0,50 c0,38 4,50 15,50 c10,0 15,10 15,30 c0,20 -5,30 -15,30 c-12,0 -15,13 -15,55 l0,55 l130,0 l130,0 l0,-85 zm550,61 c0,-25 -33,-39 -237,-101 c-22,-6 -23,-4 -23,59 l0,66 l130,0 l130,0 l0,-24 zm-4111,-381 c-3,-77 0,-127 6,-129 c6,-3 -52,-5 -127,-5 l-138,-1 l0,130 l0,130 l131,0 l131,0 l-3,-125 zm3291,16 c0,-66 -4,-112 -10,-116 c-8,-5 -7,-11 1,-21 c10,-12 -8,-14 -121,-14 c-83,0 -130,4 -128,10 c2,5 35,34 73,63 c39,29 93,83 120,120 c28,37 53,67 58,67 c4,0 7,-49 7,-109 zm-3010,-291 l0,-130 l-52,26 c-28,14 -82,46 -120,71 c-52,35 -68,51 -68,69 c0,13 -4,24 -10,24 c-5,0 -10,16 -10,35 l0,35 l130,0 l130,0 l0,-130 zm2740,-5 l0,-135 l-135,0 l-135,0 l0,85 c0,61 3,85 13,85 c6,0 57,22 112,49 c55,27 110,50 123,50 c22,1 22,0 22,-134 zm540,50 c0,-50 -4,-85 -10,-85 c-5,0 -10,-13 -10,-30 c0,-16 5,-30 10,-30 c6,0 10,-9 10,-20 c0,-19 -7,-20 -130,-20 l-130,0 l0,70 c0,56 3,70 15,70 c10,0 15,10 15,30 c0,20 -5,30 -15,30 c-10,0 -15,11 -15,35 l0,35 l130,0 l130,0 l0,-85 zm1100,-50 l0,-135 l-135,0 l-135,0 l0,135 l0,135 l135,0 l135,0 l0,-135 zm-550,-20 l0,-115 l-130,0 l-130,0 l0,59 l0,58 l83,17 c45,9 94,16 109,16 c30,0 46,16 30,32 c-8,8 -15,8 -24,1 c-7,-6 -33,-14 -58,-17 c-42,-6 -39,-4 35,28 c44,19 81,35 83,35 c1,1 2,-51 2,-114 zm-3402,-1 c62,-19 115,-34 118,-34 c2,0 4,-16 4,-36 l0,-37 l-50,6 c-29,4 -50,2 -50,-3 c0,-6 -38,-10 -85,-10 l-85,0 l0,81 c0,73 2,80 18,74 c9,-3 68,-22 130,-41 zm-617,-19 c31,-24 60,-41 64,-37 c3,4 5,2 3,-4 c-1,-6 40,-46 92,-89 c52,-42 97,-84 98,-92 c4,-16 24,-13 30,5 c2,7 -2,12 -10,12 c-13,0 -198,146 -198,157 c0,2 21,-7 48,-22 c230,-129 602,-234 987,-279 l120,-14 l-162,0 c-90,0 -164,-2 -165,-6 c-2,-4 140,-7 315,-6 c213,0 317,-3 317,-10 c0,-5 11,-10 25,-10 c14,0 25,5 25,11 c0,7 99,9 315,7 c205,-2 315,0 315,7 c0,6 -62,10 -167,9 c-93,-1 -150,0 -128,2 c396,40 741,128 1005,256 c69,34 130,62 136,63 c7,2 35,21 64,44 c28,23 56,41 61,41 c5,0 9,-84 9,-195 c0,-123 -4,-195 -10,-195 c-5,0 -10,-11 -10,-25 c0,-14 4,-25 9,-25 c15,0 -6,-59 -35,-102 c-59,-85 -233,-187 -430,-253 c-174,-58 -373,-100 -654,-137 c-132,-18 -868,-18 -1010,0 c-519,64 -878,183 -1046,347 c-61,60 -101,134 -75,143 c17,6 13,49 -5,56 c-27,10 -44,7 -44,-9 c0,-12 -20,-15 -120,-15 l-120,0 l0,130 l0,130 l135,0 l135,0 l0,75 c0,51 4,75 12,75 c6,0 37,-20 69,-45 zm1009,-214 c0,-107 0,-108 -22,-105 c-61,9 -205,36 -220,40 c-15,5 -18,18 -18,90 l0,84 l130,0 l130,0 l0,-109 zm520,99 c0,-5 7,-10 15,-10 c12,0 15,-18 15,-105 c0,-87 -3,-105 -15,-105 c-8,0 -15,-4 -15,-10 c0,-6 -47,-10 -120,-10 l-120,0 l0,125 l0,125 l120,0 c73,0 120,-4 120,-10 zm580,-99 l0,-108 l-47,-7 c-27,-3 -87,-9 -135,-13 l-88,-6 l0,122 l0,121 l135,0 l135,0 l0,-109 zm540,60 c0,-38 -4,-50 -17,-54 c-10,-3 -69,-19 -130,-35 l-113,-30 l0,82 l0,83 l130,2 l130,1 l0,-49 zm1100,-81 l0,-130 l-135,0 l-135,0 l0,130 l0,130 l135,0 l135,0 l0,-130 zm540,0 l0,-130 l-130,0 l-130,0 l0,130 l0,130 l130,0 l130,0 l0,-130 zm-820,-270 l0,-130 l-130,0 l-130,0 l0,120 c0,100 3,120 15,120 c8,0 15,5 15,10 c0,6 45,10 115,10 l115,0 l0,-130 zm550,0 l0,-130 l-130,0 l-130,0 l0,130 l0,130 l130,0 l130,0 l0,-130 zm550,0 l0,-130 l-135,0 l-135,0 l0,130 l0,130 l135,0 l135,0 l0,-130 zm-4667,-159 c-3,-10 0,-22 6,-25 c6,-4 11,-29 11,-57 c0,-37 -4,-49 -15,-49 c-10,0 -15,-10 -15,-30 c0,-27 3,-30 33,-30 c23,0 51,-13 90,-40 c31,-22 60,-39 64,-38 c4,1 55,-16 113,-39 c256,-101 557,-168 905,-202 l90,-9 l-137,1 c-76,0 -138,-3 -138,-7 c0,-4 142,-7 315,-6 c212,0 315,-3 315,-10 c0,-5 11,-10 25,-10 c14,0 25,5 25,11 c0,7 99,9 315,7 c205,-2 315,0 315,7 c0,6 -51,9 -137,8 l-138,-2 l125,14 c379,43 745,131 933,227 c22,11 40,18 42,16 c6,-6 -174,-128 -190,-128 c-8,0 -15,-7 -15,-15 c0,-21 19,-19 38,4 c26,30 289,211 307,211 c13,0 15,-22 15,-155 c0,-97 -4,-155 -10,-155 c-14,0 -13,-47 1,-52 c15,-5 -11,-66 -47,-114 c-65,-85 -271,-196 -479,-259 c-145,-44 -363,-88 -540,-109 c-185,-23 -529,-39 -533,-26 c-5,13 -45,13 -58,0 c-13,-13 -357,3 -533,25 c-479,60 -860,194 -1005,356 c-48,53 -78,120 -57,127 c17,6 14,52 -4,52 c-13,0 -15,21 -15,125 l0,125 l-135,0 l-135,0 l0,135 l0,135 l129,0 c122,0 129,-1 124,-19 zm3288,5 c-8,-10 -9,-16 -1,-21 c5,-3 10,-31 10,-61 c0,-41 -4,-54 -15,-54 c-8,0 -15,-9 -15,-19 c0,-37 -117,-101 -185,-101 l-45,0 l0,118 c0,117 0,117 28,134 c37,23 242,27 223,4 zm559,-121 l0,-135 l-135,0 l-135,0 l0,135 l0,135 l135,0 l135,0 l0,-135 zm540,0 l0,-135 l-130,0 l-130,0 l0,135 l0,135 l130,0 l130,0 l0,-135 zm-3882,11 l52,-18 l0,-64 l0,-64 l-130,0 l-130,0 l0,114 l0,114 l78,-32 c42,-18 101,-41 130,-50 zm2242,-86 l0,-60 l-79,0 c-44,0 -82,4 -85,9 c-3,5 -26,6 -52,3 c-45,-5 -46,-5 -42,23 c3,27 7,29 107,52 c57,13 107,25 109,28 c3,3 14,5 24,5 c15,0 18,-8 18,-60 zm-1910,-165 l0,-93 l-107,23 c-181,39 -163,27 -163,101 l0,64 l135,-1 l135,-2 l0,-92 zm540,-31 l0,-126 l-37,6 c-21,3 -80,8 -130,12 l-93,6 l0,114 l0,114 l130,0 l130,0 l0,-126 zm550,1 l0,-125 l-116,0 c-87,0 -119,4 -130,14 c-19,19 -20,200 -1,221 c9,11 41,14 130,15 l117,0 l0,-125 zm550,31 l0,-94 l-37,-6 c-21,-4 -82,-12 -135,-20 l-98,-13 l0,114 l0,113 l135,0 l135,0 l0,-94 zm550,75 c0,-16 -23,-27 -123,-60 c-67,-23 -128,-41 -135,-41 c-8,0 -12,19 -12,60 l0,60 l135,0 c126,0 135,-1 135,-19 zm540,-111 l0,-130 l-115,0 c-96,0 -115,3 -115,15 c0,8 -7,15 -15,15 c-12,0 -15,19 -15,115 l0,115 l130,0 l130,0 l0,-130 zm550,0 l0,-130 l-130,0 l-130,0 l0,130 l0,130 l130,0 l130,0 l0,-130 zm550,0 l0,-130 l-135,0 l-135,0 l0,130 l0,130 l135,0 l135,0 l0,-130 zm-4680,-155 c0,-8 5,-15 10,-15 c6,0 10,-45 10,-115 l0,-115 l-130,0 l-130,0 l0,130 l0,130 l120,0 c100,0 120,-2 120,-15 zm3860,-115 l0,-130 l-135,0 l-135,0 l0,130 l0,130 l135,0 l135,0 l0,-130 zm540,0 l0,-130 l-130,0 l-130,0 l0,130 l0,130 l130,0 l130,0 l0,-130 z" id="svg_2" fill="#009900" fill-opacity="1" opacity="1" filter="url(#f001)" stroke="#d5d50b" stroke-opacity="1"/>
</g><path fill="#009900" fill-opacity="1" stroke="#d5d50b" stroke-opacity="1" stroke-width="1" stroke-dasharray="none" stroke-linejoin="miter" stroke-linecap="butt" stroke-dashoffset="" fill-rule="nonzero" opacity="1" marker-start="" marker-mid="" marker-end="" d="M179.29850172951635,68.22388672371999 C179.29850172951635,35.23963327969243 256.06715617281935,8.522387990030083 350.84327276948966,8.522387990030083 C445.61938936616,8.522387990030083 522.3880438094629,35.23963327969243 522.3880438094629,68.22388672371999 C522.3880438094629,101.20814016774757 445.61938936616,127.9253854574099 350.84327276948966,127.9253854574099 C256.06715617281935,127.9253854574099 179.29850172951635,101.20814016774757 179.29850172951635,68.22388672371999 z" id="svg_3" class=""/><path fill="#009900" fill-opacity="1" stroke="#d5d50b" stroke-opacity="1" stroke-width="1" stroke-dasharray="none" stroke-linejoin="miter" stroke-linecap="butt" stroke-dashoffset="" fill-rule="nonzero" opacity="1" marker-start="" marker-mid="" marker-end="" d="M512.8835749619575,116.74626757058144L453.1820839117726,140.6268639906554" id="svg_5"/><path fill="#009900" fill-opacity="1" stroke="#d5d50b" stroke-opacity="1" stroke-width="1" stroke-dasharray="none" stroke-linejoin="miter" stroke-linecap="butt" stroke-dashoffset="" fill-rule="nonzero" opacity="1" marker-start="" marker-mid="" marker-end="" d="M453.1820839117726,139.8805953525281L386.0179064803147,148.83581901005581" id="svg_7"/><path fill="#009900" fill-opacity="1" stroke="#d5d50b" stroke-opacity="1" stroke-width="1" stroke-dasharray="none" stroke-linejoin="miter" stroke-linecap="butt" stroke-dashoffset="" fill-rule="nonzero" opacity="1" marker-start="" marker-mid="" marker-end="" d="M381.54029465155077,148.83581901005581L426.3164129391895,186.14925091642138" id="svg_9"/><path fill="#009900" fill-opacity="1" stroke="#d5d50b" stroke-opacity="1" stroke-width="1" stroke-dasharray="none" stroke-linejoin="miter" stroke-linecap="butt" stroke-dashoffset="" fill-rule="nonzero" opacity="1" marker-start="" marker-mid="" marker-end="" d="M426.3164129391895,186.14925091642138L430.047756129826,197.34328048833103" id="svg_11"/><path fill="#009900" fill-opacity="1" stroke="#d5d50b" stroke-opacity="1" stroke-width="1" stroke-dasharray="none" stroke-linejoin="miter" stroke-linecap="butt" stroke-dashoffset="" fill-rule="nonzero" opacity="1" marker-start="" marker-mid="" marker-end="" d="M430.79402476795326,198.08954912645837L493.48059037064746,179.43283317327555" id="svg_13"/><path fill="#009900" fill-opacity="1" stroke="#d5d50b" stroke-opacity="1" stroke-width="1" stroke-dasharray="none" stroke-linejoin="miter" stroke-linecap="butt" stroke-dashoffset="" fill-rule="nonzero" opacity="1" marker-start="" marker-mid="" marker-end="" d="M494.2268590087748,177.19402725889367L514.3761122382122,157.04477402945625" id="svg_15"/><path fill="#009900" fill-opacity="1" stroke="#d5d50b" stroke-opacity="1" stroke-width="1" stroke-dasharray="none" stroke-linejoin="miter" stroke-linecap="butt" stroke-dashoffset="" fill-rule="nonzero" opacity="1" marker-start="" marker-mid="" marker-end="" d="M513.6298436000849,120.477610761218L515.1223808763394,155.5522367532016" id="svg_17"/><path fill="#04b804" fill-opacity="1" stroke="#d5d50b" stroke-opacity="1" stroke-width="1" stroke-dasharray="none" stroke-linejoin="miter" stroke-linecap="butt" stroke-dashoffset="" fill-rule="nonzero" opacity="1" marker-start="" marker-mid="" marker-end="" d="M513.6298436000849,199.58208640271297L431.54029340608065,227.94029465155077" id="svg_19"/><path fill="#04b804" fill-opacity="1" stroke="#d5d50b" stroke-opacity="1" stroke-width="1" stroke-dasharray="none" stroke-linejoin="miter" stroke-linecap="butt" stroke-dashoffset="" fill-rule="nonzero" opacity="1" marker-start="" marker-mid="" marker-end="" d="M431.54029340608065,228.68656328967813L431.54029340608065,278.6865620442079" id="svg_21"/><path fill="#04b804" fill-opacity="1" stroke="#d5d50b" stroke-opacity="1" stroke-width="1" stroke-dasharray="none" stroke-linejoin="miter" stroke-linecap="butt" stroke-dashoffset="" fill-rule="nonzero" opacity="1" marker-start="" marker-mid="" marker-end="" d="M434.52536795858987,280.17909932046257L497.9582021994113,259.2835774528978" id="svg_23"/><path fill="#04b804" fill-opacity="1" stroke="#d5d50b" stroke-opacity="1" stroke-width="1" stroke-dasharray="none" stroke-linejoin="miter" stroke-linecap="butt" stroke-dashoffset="" fill-rule="nonzero" opacity="1" marker-start="" marker-mid="" marker-end="" d="M497.9582021994113,259.2835774528978L515.1223808763394,235.4029810328239" id="svg_25"/><path fill="#04b804" fill-opacity="1" stroke="#d5d50b" stroke-opacity="1" stroke-width="1" stroke-dasharray="none" stroke-linejoin="miter" stroke-linecap="butt" stroke-dashoffset="" fill-rule="nonzero" opacity="1" marker-start="" marker-mid="" marker-end="" d="M515.8686495144668,236.1492496709512L515.1223808763394,228.68656328967813" id="svg_27"/><path fill="#04b804" fill-opacity="1" stroke="#d5d50b" stroke-opacity="1" stroke-width="1" stroke-dasharray="none" stroke-linejoin="miter" stroke-linecap="butt" stroke-dashoffset="" fill-rule="nonzero" opacity="1" marker-start="" marker-mid="" marker-end="" d="M73.26865710682432,214.6044787532762 C73.26865710682432,175.3326051664795 146.92809361891995,143.52238756117424 237.86566955977884,143.52238756117424 C328.8032455006377,143.52238756117424 402.46268201273335,175.3326051664795 402.46268201273335,214.6044787532762 C402.46268201273335,253.87635234007286 328.8032455006377,285.6865699453781 237.86566955977884,285.6865699453781 C146.92809361891995,285.6865699453781 73.26865710682432,253.87635234007286 73.26865710682432,214.6044787532762 z" id="svg_29" class=""/><path fill="#04b804" fill-opacity="1" stroke="#d5d50b" stroke-opacity="1" stroke-width="1" stroke-dasharray="none" stroke-linejoin="miter" stroke-linecap="butt" stroke-dashoffset="" fill-rule="nonzero" opacity="1" marker-start="" marker-mid="" marker-end="" d="M74.07761574309865,271.97014430106213L146.46567364144784,303.3134271024092" id="svg_6"/><path fill="#04b804" fill-opacity="1" stroke="#d5d50b" stroke-opacity="1" stroke-width="1" stroke-dasharray="none" stroke-linejoin="miter" stroke-linecap="butt" stroke-dashoffset="" fill-rule="nonzero" opacity="1" marker-start="" marker-mid="" marker-end="" d="M153.1820913845936,304.05969574053654L219.6000001779243,313.7611880361916" id="svg_10"/><path fill="#04b804" fill-opacity="1" stroke="#d5d50b" stroke-opacity="1" stroke-width="1" stroke-dasharray="none" stroke-linejoin="miter" stroke-linecap="butt" stroke-dashoffset="" fill-rule="nonzero" opacity="1" marker-start="" marker-mid="" marker-end="" d="M221.8388060923062,314.50745667431886L273.3313421230907,314.50745667431886" id="svg_14"/><path fill="#04b804" fill-opacity="1" stroke="#d5d50b" stroke-opacity="1" stroke-width="1" stroke-dasharray="none" stroke-linejoin="miter" stroke-linecap="butt" stroke-dashoffset="" fill-rule="nonzero" opacity="1" marker-start="" marker-mid="" marker-end="" d="M273.3313421230907,314.50745667431886L343.4805941070579,299.58208391177266" id="svg_18"/><path fill="#04b804" fill-opacity="1" stroke="#d5d50b" stroke-opacity="1" stroke-width="1" stroke-dasharray="none" stroke-linejoin="miter" stroke-linecap="butt" stroke-dashoffset="" fill-rule="nonzero" opacity="1" marker-start="" marker-mid="" marker-end="" d="M343.4805941070579,299.58208391177266L398.7044733284789,272.71641293918947" id="svg_22"/><path fill="#04b804" fill-opacity="1" stroke="#d5d50b" stroke-opacity="1" stroke-width="1" stroke-dasharray="none" stroke-linejoin="miter" stroke-linecap="butt" stroke-dashoffset="" fill-rule="nonzero" opacity="1" marker-start="" marker-mid="" marker-end="" d="M70.3462725524621,310.7761134836823L74.07761574309865,315.9999939505735" id="svg_26"/><path fill="#04b804" fill-opacity="1" stroke="#d5d50b" stroke-opacity="1" stroke-width="1" stroke-dasharray="none" stroke-linejoin="miter" stroke-linecap="butt" stroke-dashoffset="" fill-rule="nonzero" opacity="1" marker-start="" marker-mid="" marker-end="" d="M72.58507846684401,313.7611880361916L72.58507846684401,321.970143055592" id="svg_30"/><path fill="#04b804" fill-opacity="1" stroke="#d5d50b" stroke-opacity="1" stroke-width="1" stroke-dasharray="none" stroke-linejoin="miter" stroke-linecap="butt" stroke-dashoffset="" fill-rule="nonzero" opacity="1" marker-start="" marker-mid="" marker-end="" d="M72.58507846684401,321.970143055592L99.45074943942723,345.10447083753866" id="svg_32"/><path fill="#04b804" fill-opacity="1" stroke="#d5d50b" stroke-opacity="1" stroke-width="1" stroke-dasharray="none" stroke-linejoin="miter" stroke-linecap="butt" stroke-dashoffset="" fill-rule="nonzero" opacity="1" marker-start="" marker-mid="" marker-end="" d="M99.45074943942723,345.10447083753866L181.5402996334314,365.99999270510335" id="svg_34"/><path fill="#04b804" fill-opacity="1" stroke="#d5d50b" stroke-opacity="1" stroke-width="1" stroke-dasharray="none" stroke-linejoin="miter" stroke-linecap="butt" stroke-dashoffset="" fill-rule="nonzero" opacity="1" marker-start="" marker-mid="" marker-end="" d="M182.28656827155874,365.99999270510335L283.77910305687305,365.99999270510335" id="svg_36"/><path fill="#04b804" fill-opacity="1" stroke="#d5d50b" stroke-opacity="1" stroke-width="1" stroke-dasharray="none" stroke-linejoin="miter" stroke-linecap="butt" stroke-dashoffset="" fill-rule="nonzero" opacity="1" marker-start="" marker-mid="" marker-end="" d="M288.2567148856369,365.253724066976L356.9134295933495,351.07461994255715" id="svg_38"/><path fill="#04b804" fill-opacity="1" stroke="#d5d50b" stroke-opacity="1" stroke-width="1" stroke-dasharray="none" stroke-linejoin="miter" stroke-linecap="butt" stroke-dashoffset="" fill-rule="nonzero" opacity="1" marker-start="" marker-mid="" marker-end="" d="M356.9134295933495,351.07461994255715L400.19701060473363,321.2238744174647" id="svg_40"/><path fill="#04b804" fill-opacity="1" stroke="#d5d50b" stroke-opacity="1" stroke-width="1" stroke-dasharray="none" stroke-linejoin="miter" stroke-linecap="butt" stroke-dashoffset="" fill-rule="nonzero" opacity="1" marker-start="" marker-mid="" marker-end="" d="M69.60000391433476,354.05969449506637L71.0925411905894,348.8358140281752" id="svg_42"/><path fill="#04b804" fill-opacity="1" stroke="#d5d50b" stroke-opacity="1" stroke-width="1" stroke-dasharray="none" stroke-linejoin="miter" stroke-linecap="butt" stroke-dashoffset="" fill-rule="nonzero" opacity="1" marker-start="" marker-mid="" marker-end="" d="M50.94328796115201,339.88059037064744L71.8388098287167,341.3731276469021" id="svg_44"/><path fill="#04b804" fill-opacity="1" stroke="#d5d50b" stroke-opacity="1" stroke-width="1" stroke-dasharray="none" stroke-linejoin="miter" stroke-linecap="butt" stroke-dashoffset="" fill-rule="nonzero" opacity="1" marker-start="" marker-mid="" marker-end="" d="M47.95821340864277,286.8955170636084L71.0925411905894,286.14924842548106" id="svg_46"/><path fill="#04b804" fill-opacity="1" stroke="#d5d50b" stroke-opacity="1" stroke-width="1" stroke-dasharray="none" stroke-linejoin="miter" stroke-linecap="butt" stroke-dashoffset="" fill-rule="nonzero" opacity="1" marker-start="" marker-mid="" marker-end="" d="M71.0925411905894,286.14924842548106L77.0626902956079,264.50745791978903" id="svg_48"/><path fill="#04b804" fill-opacity="1" stroke="#d5d50b" stroke-opacity="1" stroke-width="1" stroke-dasharray="none" stroke-linejoin="miter" stroke-linecap="butt" stroke-dashoffset="" fill-rule="nonzero" opacity="1" marker-start="" marker-mid="" marker-end="" d="M49.45075068489738,312.268650759937L68.85373527620746,313.7611880361916" id="svg_50"/><path fill="#04b804" fill-opacity="1" stroke="#d5d50b" stroke-opacity="1" stroke-width="1" stroke-dasharray="none" stroke-linejoin="miter" stroke-linecap="butt" stroke-dashoffset="" fill-rule="nonzero" opacity="1" marker-start="" marker-mid="" marker-end="" d="M70.3462725524621,360.7761122382122L119.60000266886463,380.1790968295223" id="svg_52"/><path fill="#04b804" fill-opacity="1" stroke="#d5d50b" stroke-opacity="1" stroke-width="1" stroke-dasharray="none" stroke-linejoin="miter" stroke-linecap="butt" stroke-dashoffset="" fill-rule="nonzero" opacity="1" marker-start="" marker-mid="" marker-end="" d="M120.34627130699194,380.92536546764956L193.4805978434684,393.6119323158139" id="svg_54"/><path fill="#04b804" fill-opacity="1" stroke="#d5d50b" stroke-opacity="1" stroke-width="1" stroke-dasharray="none" stroke-linejoin="miter" stroke-linecap="butt" stroke-dashoffset="" fill-rule="nonzero" opacity="1" marker-start="" marker-mid="" marker-end="" d="M186.76418010032262,397.3432755064504L297.9582071812919,395.8507382301957" id="svg_56"/><path fill="#04b804" fill-opacity="1" stroke="#d5d50b" stroke-opacity="1" stroke-width="1" stroke-dasharray="none" stroke-linejoin="miter" stroke-linecap="butt" stroke-dashoffset="" fill-rule="nonzero" opacity="1" marker-start="" marker-mid="" marker-end="" d="M280.7940285043638,395.8507382301957L378.55522009904155,372.7164104482491" id="svg_58"/><path fill="#04b804" fill-opacity="1" stroke="#d5d50b" stroke-opacity="1" stroke-width="1" stroke-dasharray="none" stroke-linejoin="miter" stroke-linecap="butt" stroke-dashoffset="" fill-rule="nonzero" opacity="1" marker-start="" marker-mid="" marker-end="" d="M378.55522009904155,372.7164104482491L400.19701060473363,357.0447690475756" id="svg_60"/><path fill="#04b804" fill-opacity="1" stroke="#d5d50b" stroke-opacity="1" stroke-width="1" stroke-dasharray="none" stroke-linejoin="miter" stroke-linecap="butt" stroke-dashoffset="" fill-rule="nonzero" opacity="1" marker-start="" marker-mid="" marker-end="" d="M395.7193987759697,364.50745542884874L369.59999644151384,381.6716341057769" id="svg_62"/><path fill="#04b804" fill-opacity="1" stroke="#d5d50b" stroke-opacity="1" stroke-width="1" stroke-dasharray="none" stroke-linejoin="miter" stroke-linecap="butt" stroke-dashoffset="" fill-rule="nonzero" opacity="1" marker-start="" marker-mid="" marker-end="" d="M71.0925411905894,397.3432755064504L88.25671986751755,421.22387192652434" id="svg_64"/><path fill="#04b804" fill-opacity="1" stroke="#d5d50b" stroke-opacity="1" stroke-width="1" stroke-dasharray="none" stroke-linejoin="miter" stroke-linecap="butt" stroke-dashoffset="" fill-rule="nonzero" opacity="1" marker-start="" marker-mid="" marker-end="" d="M88.25671986751755,421.22387192652434L150.94328547021166,441.3731251559617" id="svg_66"/><path fill="#04b804" fill-opacity="1" stroke="#d5d50b" stroke-opacity="1" stroke-width="1" stroke-dasharray="none" stroke-linejoin="miter" stroke-linecap="butt" stroke-dashoffset="" fill-rule="nonzero" opacity="1" marker-start="" marker-mid="" marker-end="" d="M150.94328547021166,441.3731251559617L236.76417885485245,450.32834881348947" id="svg_68"/><path fill="#04b804" fill-opacity="1" stroke="#d5d50b" stroke-opacity="1" stroke-width="1" stroke-dasharray="none" stroke-linejoin="miter" stroke-linecap="butt" stroke-dashoffset="" fill-rule="nonzero" opacity="1" marker-start="" marker-mid="" marker-end="" d="M236.76417885485245,450.32834881348947L333.03283317327555,439.8805878797072" id="svg_70"/><path fill="#04b804" fill-opacity="1" stroke="#d5d50b" stroke-opacity="1" stroke-width="1" stroke-dasharray="none" stroke-linejoin="miter" stroke-linecap="butt" stroke-dashoffset="" fill-rule="nonzero" opacity="1" marker-start="" marker-mid="" marker-end="" d="M331.54029589702094,439.8805878797072L386.0179064803147,421.22387192652434" id="svg_72"/><path fill="#04b804" fill-opacity="1" stroke="#d5d50b" stroke-opacity="1" stroke-width="1" stroke-dasharray="none" stroke-linejoin="miter" stroke-linecap="butt" stroke-dashoffset="" fill-rule="nonzero" opacity="1" marker-start="" marker-mid="" marker-end="" d="M386.0179064803147,421.22387192652434L402.43581651911546,394.3582009539411" id="svg_74"/><path fill="#04b804" fill-opacity="1" stroke="#d5d50b" stroke-opacity="1" stroke-width="1" stroke-dasharray="none" stroke-linejoin="miter" stroke-linecap="butt" stroke-dashoffset="" fill-rule="nonzero" opacity="1" marker-start="" marker-mid="" marker-end="" d="M400.19701060473363,368.98506725761257L403.18208515724285,392.8656636776865" id="svg_76"/></g><defs><filter xmlns:inkscape="http://www.inkscape.org/namespaces/inkscape" id="f001" inkscape:label="Matte jelly" x="0" y="0" width="1" height="1" inkscape:menu="ABCs" inkscape:menu-tooltip="Bulging, matte jelly covering" color-interpolation-filters="sRGB">
            <feColorMatrix values="1 0 0 0 0 0 1 0 0 0 0 0 1 0 0 0 0 0 0.85 0" result="result0" in="SourceGraphic"/>
            <feGaussianBlur in="SourceAlpha" stdDeviation="7"/>
            <feSpecularLighting surfaceScale="5" specularConstant=".9" specularExponent="25">
                <feDistantLight elevation="60" azimuth="225"/>
            </feSpecularLighting>
            <feComposite operator="atop" in2="result0"/>
        </filter></defs></svg>